<?xml version="1.0" encoding="iso-8859-1"?>
<!-- Generator: Adobe Illustrator 18.1.1, SVG Export Plug-In . SVG Version: 6.00 Build 0)  -->
<svg version="1.1" id="Capa_1" xmlns="http://www.w3.org/2000/svg" xmlns:xlink="http://www.w3.org/1999/xlink" x="0px" y="0px"
	 viewBox="0 0 423.006 423.006" style="enable-background:new 0 0 423.006 423.006;" xml:space="preserve">
<path d="M389.612,66.195c-37.325-44.49-102.321-60.459-160.126-39.992l-2.791-7.673c-2.532-6.932-6.361-11.269-11.081-12.528
	c-2.103-0.578-6.316-0.967-10.704,2.726l-2.045,1.714c-0.171,0.144-0.269,0.342-0.434,0.493l1.168-6.037
	c0.009-0.045-0.011-0.089-0.004-0.135c0.049-0.325,0.02-0.649-0.028-0.977c-0.019-0.124-0.001-0.249-0.033-0.37
	c-0.113-0.427-0.309-0.836-0.6-1.204c-0.008-0.011-0.009-0.025-0.017-0.035c-0.015-0.019-0.04-0.025-0.055-0.043
	c-0.294-0.346-0.638-0.62-1.02-0.815c-0.132-0.068-0.281-0.08-0.421-0.129c-0.292-0.103-0.58-0.195-0.887-0.213
	c-0.05-0.003-0.093-0.034-0.143-0.035L176.233,0.49c-0.759-0.019-1.584,0.253-2.194,0.772l-29.217,24.504
	c-0.584,0.493-0.986,1.141-1.129,1.894l-4.525,23.703c-0.188,0.98,0.078,1.165,0.715,1.931c0.629,0.759,1.564,0.263,2.551,0.263
	c0.006,0,0.019,0,0.026,0l7.892,0.688c-0.653,0.404-1.359,1.048-1.96,1.553l-2.045,1.891c-4.394,3.687-4.725,7.982-4.537,10.157
	c0.422,4.868,4.025,9.437,10.419,13.131l7.075,4.105c-9.152,16.28-15.377,34.577-18.097,53.31c-0.048,0.326,0.051,0.63,0.051,0.95
	c-33.145,0.126-65.147,11.551-90.701,32.995c-59.856,50.223-67.69,139.777-17.462,199.626
	c27.991,33.359,68.184,50.554,108.657,50.554c32.151,0,64.471-10.852,90.968-33.091c26.646-22.363,44.094-53.617,49.119-88.008
	c0.037-0.254-0.048-0.486-0.04-0.737c28.933-0.291,57.926-9.27,82.667-27.408c32.32-23.7,52.747-58.571,57.525-98.18
	C426.697,136.021,414.902,96.328,389.612,66.195z M199.673,41.431l-3.75,3.145l2.504-12.941L199.673,41.431z M184.306,21.522
	l11.037-8.936l-5.19,26.813L184.306,21.522z M184.632,43.904l-16.691-9.134l10.834-8.771L184.632,43.904z M164.325,29.145
	l0.353-8.966l9.356,1.106L164.325,29.145z M162.194,39.423l16.396,9.084l-27.867,0.203L162.194,39.423z M177.356,7.164l13.801,0.26
	l-10.161,8.226c-0.255-0.098-0.466-0.282-0.744-0.314l-11.074-1.307L177.356,7.164z M157.895,23.498l-0.435,11.114
	c-0.001,0.026,0.019,0.051,0.018,0.076l-9.866,7.988l2.39-12.553L157.895,23.498z M183.659,54.863l-4.194,3.517l-11.203-3.474
	L183.659,54.863z M224.177,379.247c-54.241,45.503-135.388,38.415-180.904-15.825c-22.044-26.277-32.54-59.564-29.548-93.727
	c2.986-34.17,19.104-65.127,45.373-87.178c24.758-20.759,56.214-31.333,88.398-29.905c35.78,1.642,69.494,18.312,92.506,45.731
	c14.45,17.23,24.005,37.698,27.962,59.606c-5.175-0.631-10.264-1.579-15.201-2.967c-4.049-17.371-12.156-33.72-23.693-47.468
	c-14.118-16.826-32.618-28.791-53.494-35.27c-9.367-2.908-19.078-4.689-28.873-4.689c-0.081,0-0.161,0-0.242,0
	c-0.083,0-0.155-0.381-0.238-0.374c-0.033,0.003-0.059-0.15-0.091-0.147c-28.506-1.122-56.042,8.201-77.856,26.5
	c-48.21,40.453-54.526,112.547-14.073,160.757c22.544,26.867,54.929,40.698,87.528,40.698c25.893,0,51.93-8.755,73.273-26.664
	c21.237-17.817,35.192-42.676,39.408-70.038c4.686,0.859,9.404,1.477,14.147,1.867C263.876,331.059,248.152,359.126,224.177,379.247
	z M281.533,258.824c-3.978-25.398-14.691-49.171-31.352-69.023c-18.356-21.877-42.907-37.51-70.014-45.202
	c0.048-0.202,0.172-0.365,0.201-0.575c3.453-24.744,15.897-47.23,35.052-63.309c20.636-17.312,46.828-25.536,73.61-23.206
	c26.835,2.35,51.151,15.001,68.463,35.637c17.312,20.636,25.556,46.776,23.207,73.611c-2.344,26.835-15.002,51.144-35.637,68.463
	C327.02,250.357,304.789,258.594,281.533,258.824z M237.387,249.182c-13.079-6.137-24.831-14.995-34.398-26.393
	c-8.241-9.826-14.527-21.132-18.523-33.204c13.188,6.178,24.926,15.162,34.42,26.473
	C227.11,225.856,233.388,237.136,237.387,249.182z M141.007,180.155c3.898,29.365,16.253,55.774,36.167,76.622
	c18.118,18.971,40.492,31.801,64.368,38.497c-0.034,0.154-0.133,0.273-0.156,0.431c-3.616,24.394-16.021,46.562-34.923,62.432
	c-42.595,35.722-106.326,30.165-142.08-12.431C28.648,303.111,34.225,239.375,76.82,203.634
	C94.91,188.449,117.421,180.302,141.007,180.155z M408.787,173.501c-4.329,35.922-22.862,67.548-52.189,89.047
	c-52.15,38.246-125.157,31.807-169.81-14.949c-17.381-18.198-28.399-41.139-32.283-66.69c4.941,0.634,9.825,1.64,14.625,2.995
	c4.047,17.353,12.149,33.688,23.683,47.428c14.002,16.688,32.09,28.663,52.331,35.167c0.271,0.088,0.514,0.222,0.796,0.275
	c7.842,2.455,15.975,4.162,24.359,4.895c1.942,0.171,3.87,0.183,5.803,0.256c0.161-0.009,0.304,0.057,0.467,0.036
	c0.015-0.001,0.027-0.012,0.042-0.013c1.276,0.043,2.56,0.169,3.833,0.169c26.757,0,52.424-9.308,73.163-26.718
	c23.356-19.591,37.681-47.107,40.336-77.479c2.661-30.373-6.666-59.959-26.27-83.315c-19.591-23.356-47.107-37.682-77.48-40.337
	c-30.359-2.667-59.959,6.673-83.314,26.27c-21.523,18.063-35.542,43.277-39.562,71.053c-4.245-0.787-8.53-1.403-12.855-1.799
	c2.844-19.042,9.608-37.548,19.623-53.552c0.954-1.525,1.252-3.375,0.818-5.128c-0.435-1.753-1.564-3.252-3.129-4.154l-12.898-7.452
	c-1.474-0.85-2.46-1.629-3.084-2.213l1.149-0.96c0.902-0.76,2.174-0.863,3.2-0.241c0.467,0.286,0.967,0.513,1.486,0.675
	l17.358,5.387c2.168,0.682,4.511,0.195,6.244-1.259l25.764-21.616c1.733-1.447,2.61-3.687,2.324-5.926l-2.291-18.033
	c-0.072-0.545-0.208-1.077-0.409-1.59c-0.429-1.097-0.11-2.344,0.798-3.109l1.149-0.955c0.467,0.715,1.058,1.818,1.642,3.415
	l5.096,13.995c0.617,1.694,1.896,3.07,3.544,3.804c1.636,0.733,3.518,0.759,5.193,0.084c54.071-21.901,116.316-8.016,151.394,33.774
	C402.698,102.468,413.123,137.546,408.787,173.501z"/>
<g>
</g>
<g>
</g>
<g>
</g>
<g>
</g>
<g>
</g>
<g>
</g>
<g>
</g>
<g>
</g>
<g>
</g>
<g>
</g>
<g>
</g>
<g>
</g>
<g>
</g>
<g>
</g>
<g>
</g>
</svg>
