<svg xmlns="http://www.w3.org/2000/svg" viewBox="0 0 416.729 416.729" enable-background="new 0 0 416.729 416.729"><path d="M405.544 120.462c-11.628-11.76-27.092-18.236-43.548-18.236h-.007c-16.454.002-31.915 6.479-43.537 18.238l-24.424 24.716c-6.237-13.053-16.818-23.714-30.209-29.938l-16.345-7.606c-44.403-20.645-81.27-53.922-106.614-96.232-2.175-3.632-6.403-5.501-10.555-4.664-4.151.836-7.325 4.197-7.923 8.389l-1.412 9.88c-6.696 46.838 1.684 94.816 23.608 136.434-42.788 14.085-88.264 15.91-132.209 5.195-4.098-.998-8.379.679-10.707 4.194-2.328 3.515-2.201 8.113.317 11.494l5.936 7.971c28.063 37.688 66.468 64.932 111.062 78.785 14.433 4.484 29.107 7.439 43.852 8.867l-47.007 47.565-72.678 54.869c-3.247 2.451-4.685 6.625-3.637 10.556s4.373 6.835 8.409 7.346l93.565 11.825c.419.053.838.079 1.255.079 2.912 0 5.707-1.274 7.619-3.525l47.316-55.679 32.58 3.412c4.058.425 8.103.635 12.13.635 25.983-.001 51.086-8.765 71.739-25.247 23.822-19.011 39.143-46.23 43.139-76.643l9.067-69.011c11.846 4.834 21.08 3.536 26.743 2.74 1.035-.146 2.335-.327 2.78-.323 11.256.099 20.523-9.009 20.684-20.251.09-6.199.196-14.444.196-18.525 0-10.299-3.97-19.995-11.185-27.31zm-266.467-75.861c26.123 34.92 60.254 62.707 99.961 81.168l16.346 7.607c11.41 5.303 19.826 15.348 23.219 27.412l-19.778 20.014-27.545-20.818c-17.192-12.994-39.458-16.198-59.56-8.57l-8.174 3.102c-18.246-33.534-26.73-71.779-24.469-109.915zm-.458 344.988l-63.796-8.063 50.49-38.118 48.257 5.053-34.951 41.128zm257.916-223.58c-.004.298-.249.54-.547.54h-.004c-1.882-.013-3.757.245-5.7.518-6.209.873-13.945 1.962-25.94-7.013-2.844-2.128-6.604-2.588-9.875-1.208-3.272 1.379-5.568 4.391-6.031 7.912l-11.009 83.78c-3.318 25.257-16.026 47.849-35.783 63.616-19.725 15.74-44.336 22.969-69.312 20.353l-88.157-9.232 45.875-46.421c21.797-.659 43.52-4.639 64.608-11.933 5.22-1.805 7.987-7.5 6.183-12.719-1.807-5.22-7.505-7.987-12.72-6.182-20.231 6.997-40.957 10.56-61.487 10.905-.614-.049-2.818.028-3.305.028-56.198 0-110.637-24.088-149.035-67.82 43.004 5.883 86.654.94 127.676-14.627l16.844-6.392c13.63-5.171 28.735-2.994 40.405 5.826l34.532 26.1c3.026 2.288 7.088 2.664 10.485.974 1.044-.52 1.97-1.207 2.752-2.021l65.687-66.469c7.835-7.928 18.246-12.295 29.313-12.296 11.072-.001 21.488 4.366 29.322 12.289 3.492 3.541 5.416 8.249 5.416 13.257.001 3.959-.104 12.101-.193 18.235z"/></svg>