<svg xmlns="http://www.w3.org/2000/svg" viewBox="0 0 450.222 450.222" enable-background="new 0 0 450.222 450.222"><path d="M333.515 225.194c-.951-3.128-3.819-5.28-7.089-5.318-3.305-.042-6.188 2.046-7.21 5.152l-66.679 202.378c-1.221 3.705.602 7.726 4.191 9.25 21.298 9.044 44.162 13.565 67.026 13.565s45.729-4.521 67.026-13.565c3.528-1.498 5.359-5.417 4.244-9.084l-61.509-202.378zm-64.524 200.206l57.06-173.183 52.619 173.126c-35.199 13.163-74.466 13.182-109.679.057zm-9.48-156.305c-10.045 8.161-16.255 19.751-17.486 32.636s2.671 25.441 10.988 35.358c1.483 1.769 3.609 2.68 5.75 2.68 1.7 0 3.411-.575 4.815-1.753 3.174-2.662 3.589-7.393.927-10.566-5.714-6.813-8.395-15.44-7.549-24.292s5.112-16.814 12.014-22.421c10.104-8.208 16.32-19.869 17.505-32.833 1.181-12.911-2.784-25.453-11.161-35.339 41.857-8.592 73.827-52.633 73.827-105.515 0-59.028-39.823-107.05-88.771-107.05-32.72 0-62.887 21.961-78.236 56.42-2.031-.168-4.08-.261-6.146-.261-48.95 0-88.774 48.021-88.774 107.048 0 57.596 37.92 104.706 85.235 106.955l6.97 8.174c5.804 6.805 8.552 15.458 7.737 24.364s-5.085 16.917-12.026 22.556c-10.045 8.162-16.255 19.751-17.486 32.636s2.671 25.441 10.988 35.358l25.613 30.54c1.483 1.769 3.609 2.681 5.75 2.681 1.7 0 3.411-.575 4.815-1.753 3.174-2.662 3.589-7.393.927-10.566l-25.613-30.54c-5.714-6.813-8.395-15.44-7.549-24.292s5.112-16.814 12.014-22.421c10.104-8.208 16.32-19.869 17.505-32.832 1.181-12.909-2.783-25.45-11.159-35.336 27.373-5.62 50.515-26.398 63.255-54.899.877.073 1.757.124 2.637.166l6.974 8.178c5.803 6.805 8.551 15.458 7.736 24.364s-5.085 16.916-12.026 22.555zm.859-254.095c40.677 0 73.771 41.293 73.771 92.05 0 50.751-33.094 92.04-73.771 92.04l-.74-.015c3.318-11.219 5.132-23.292 5.132-35.868 0-50.154-28.754-92.355-67.425-103.911 13.294-27.167 37.304-44.296 63.033-44.296zm-84.383 240.255c-40.68 0-73.774-41.292-73.774-92.048s33.095-92.048 73.774-92.048 73.774 41.292 73.774 92.048c.001 50.755-33.094 92.048-73.774 92.048zm145.217 80.843c-1.722-4.067-6.711-5.837-10.588-3.667-4.306 2.41-5.042 8.346-1.643 11.848 2.443 2.368 6.196 2.875 9.141 1.134 3.166-1.873 4.494-5.921 3.09-9.315zm12.15 41.74c1.165 2.769 3.903 4.628 6.92 4.63 3.063.001 5.872-1.927 6.989-4.772 1.132-2.883.317-6.273-2.003-8.331-2.406-2.134-5.998-2.482-8.771-.86-3.174 1.858-4.575 5.928-3.135 9.333zm-24.15 32.26c-1.245-2.94-4.272-4.851-7.476-4.606-3.135.24-5.827 2.455-6.672 5.481-1.824 6.526 5.734 12.031 11.388 8.235 2.943-1.975 4.115-5.834 2.76-9.11zm-257.621-376.431c-2.93-2.929-7.678-2.929-10.607 0-2.929 2.929-2.929 7.677 0 10.606l9.5 9.5c1.465 1.465 3.385 2.197 5.304 2.197s3.839-.732 5.304-2.197c2.929-2.929 2.929-7.677 0-10.606l-9.501-9.5zm329.935 41.803c1.919 0 3.839-.732 5.304-2.197l9.5-9.5c2.929-2.929 2.929-7.677 0-10.606-2.93-2.929-7.678-2.929-10.607 0l-9.5 9.5c-2.929 2.929-2.929 7.677 0 10.606 1.465 1.465 3.384 2.197 5.303 2.197zm-97.854 79.396c1.199.71 2.515 1.047 3.814 1.047 2.563 0 5.06-1.314 6.461-3.68l6.845-11.561c2.109-3.564.932-8.165-2.633-10.275-3.563-2.109-8.162-.933-10.275 2.632l-6.845 11.561c-2.11 3.566-.932 8.166 2.633 10.276zm-156.734 187.734l-9.5 9.5c-2.929 2.929-2.929 7.678 0 10.606 1.465 1.464 3.385 2.197 5.304 2.197s3.839-.732 5.304-2.197l9.5-9.5c2.929-2.929 2.929-7.678 0-10.606-2.931-2.929-7.679-2.929-10.608 0zm-76.429-113.598c-4.143 0-7.5 3.358-7.5 7.5v13.435c0 4.142 3.357 7.5 7.5 7.5s7.5-3.358 7.5-7.5v-13.435c0-4.142-3.358-7.5-7.5-7.5zm353.442-31.814h-13.436c-4.143 0-7.5 3.358-7.5 7.5s3.357 7.5 7.5 7.5h13.436c4.143 0 7.5-3.358 7.5-7.5s-3.357-7.5-7.5-7.5zm-236.364-104.46h-13.435c-4.143 0-7.5 3.358-7.5 7.5s3.357 7.5 7.5 7.5h13.435c4.143 0 7.5-3.358 7.5-7.5s-3.357-7.5-7.5-7.5z"/></svg>