<?xml version="1.0" encoding="iso-8859-1"?>
<!-- Generator: Adobe Illustrator 18.0.0, SVG Export Plug-In . SVG Version: 6.00 Build 0)  -->
<!DOCTYPE svg PUBLIC "-//W3C//DTD SVG 1.1//EN" "http://www.w3.org/Graphics/SVG/1.1/DTD/svg11.dtd">
<svg version="1.1" id="Capa_1" xmlns="http://www.w3.org/2000/svg" xmlns:xlink="http://www.w3.org/1999/xlink" x="0px" y="0px"
	 viewBox="0 0 478.424 478.424" style="enable-background:new 0 0 478.424 478.424;" xml:space="preserve">
<g>
	<path d="M176.629,168.913c3.038,0,5.5-2.462,5.5-5.5c0-4.905,3.99-8.895,8.895-8.895c4.905,0,8.895,3.99,8.895,8.895
		c0,3.038,2.462,5.5,5.5,5.5s5.5-2.462,5.5-5.5c0-10.97-8.925-19.895-19.895-19.895c-10.97,0-19.895,8.925-19.895,19.895
		C171.129,166.45,173.591,168.913,176.629,168.913z"/>
	<path d="M273.266,168.913c3.038,0,5.5-2.462,5.5-5.5c0-4.905,3.99-8.895,8.895-8.895c4.904,0,8.895,3.99,8.895,8.895
		c0,3.038,2.462,5.5,5.5,5.5s5.5-2.462,5.5-5.5c0-10.97-8.925-19.895-19.895-19.895c-10.97,0-19.895,8.925-19.895,19.895
		C267.766,166.45,270.229,168.913,273.266,168.913z"/>
	<path d="M239.342,204.36c9.701,0,18.822-3.778,25.681-10.637c2.148-2.148,2.148-5.63,0-7.778c-2.148-2.148-5.631-2.147-7.778,0
		c-4.782,4.782-11.14,7.416-17.903,7.416s-13.121-2.634-17.903-7.416c-2.148-2.147-5.63-2.148-7.778,0s-2.148,5.63,0,7.778
		C220.52,200.583,229.641,204.36,239.342,204.36z"/>
	<path d="M289.549,63.318c14.358,7.646,30.731,12.726,43.834,12.726c10.063,0,18.197-2.999,21.998-10.136
		c8.749-16.429-13.509-39.661-38.893-53.178c-13.334-7.101-27.153-11.551-38.91-12.529c-13.355-1.111-22.917,2.418-26.922,9.939
		C241.908,26.569,264.166,49.8,289.549,63.318z M260.366,15.31c1.463-2.747,6.148-4.307,12.587-4.307
		c1.181,0,2.423,0.052,3.713,0.16c10.301,0.857,22.607,4.862,34.652,11.276c26.426,14.073,37.819,31.791,34.354,38.299
		c-3.466,6.508-24.526,6.944-50.953-7.129C268.293,39.536,256.901,21.817,260.366,15.31z"/>
	<circle cx="239.338" cy="357.19" r="7.51"/>
	<path d="M399.41,265.963c8.443-3.385,14.079-11.526,14.079-20.882c0-1.647-0.187-3.323-0.561-5.003
		c-1.331-5.871-4.87-10.872-9.965-14.081c-2.632-1.658-5.516-2.735-8.499-3.205c4.299-7.278,4.589-16.646,0.057-24.312l-0.266-0.45
		c-3.379-5.73-9.049-9.815-15.554-11.207c-6.429-1.376-13.18,0.005-18.519,3.787c-10.919,7.735-23.115,13.891-32.455,18.073
		c2.878-5.276,5.296-10.8,7.182-16.508c14.233-1.982,25.224-14.233,25.224-29.003c0-14.177-10.092-26.073-23.638-28.709
		c-5.496-20.373-17.461-38.766-33.983-52.117c-17.802-14.386-40.236-22.308-63.168-22.308c-17.582,0-34.862,4.673-49.996,13.329
		c-7.828-7.474-11.374-18.322-9.296-29.133c2.552-13.259,15.416-21.973,28.684-19.421c4.855,0.934,9.055,3.699,11.826,7.787
		c2.771,4.087,3.784,9.01,2.851,13.862c-0.574,2.983,1.379,5.866,4.362,6.44c2.986,0.574,5.867-1.38,6.439-4.363
		c1.488-7.739-0.126-15.592-4.547-22.112c-4.419-6.518-11.115-10.928-18.854-12.416c-19.222-3.697-37.865,8.93-41.563,28.146
		c-2.627,13.668,1.438,27.378,10.678,37.313c-1.27,0.93-2.525,1.884-3.753,2.876c-16.522,13.351-28.487,31.744-33.983,52.117
		c-13.546,2.635-23.638,14.532-23.638,28.709c0,14.77,10.991,27.021,25.224,29.003c1.904,5.764,4.35,11.343,7.266,16.666
		c-9.375-4.179-21.728-10.389-32.799-18.232c-5.339-3.782-12.088-5.164-18.52-3.787c-6.505,1.392-12.175,5.476-15.536,11.175
		l-0.298,0.505c-4.522,7.649-4.23,17.012,0.069,24.289c-2.982,0.471-5.866,1.548-8.498,3.205c-5.096,3.209-8.635,8.21-9.97,14.103
		c-0.369,1.659-0.556,3.335-0.556,4.982c0,9.355,5.636,17.496,14.079,20.882c-2.41,1.632-4.478,3.768-6.035,6.294
		c-3.074,4.989-3.895,11.075-2.252,16.693c2.562,8.8,10.75,14.946,19.91,14.946c0.73,0,1.455-0.039,2.17-0.114
		c-9.911,13.869-8.655,33.326,3.788,45.781c6.929,6.929,16.028,10.393,25.131,10.393c9.1,0,18.203-3.465,25.131-10.393l6.892-6.892
		c4.453,11.907,11.319,22.647,20.006,31.615v68.596c0,19.597,15.944,35.541,35.542,35.541c12.631,0,23.737-6.629,30.042-16.585
		c6.305,9.956,17.41,16.585,30.042,16.585c19.597,0,35.541-15.944,35.541-35.541v-68.596c8.554-8.831,15.344-19.378,19.802-31.068
		l6.344,6.344c6.929,6.928,16.029,10.393,25.13,10.392c9.101,0,18.204-3.465,25.133-10.395
		c12.467-12.479,13.704-31.992,3.725-45.866c0.9,0.119,1.809,0.201,2.731,0.201c9.161,0,17.348-6.146,19.908-14.94
		c1.645-5.624,0.824-11.711-2.25-16.699C403.888,269.731,401.82,267.595,399.41,265.963z M241.734,71.09
		c-9.528,9.088-22.928,13.187-36.297,10.616c-1.876-0.364-3.686-0.889-5.412-1.554c12.172-5.936,25.641-9.114,39.317-9.114
		C240.141,71.039,240.937,71.069,241.734,71.09z M147.715,181.455c-10.026-0.065-18.163-8.241-18.163-18.282
		c0-9.727,7.618-17.734,17.343-18.228c2.459-0.125,4.536-1.87,5.083-4.271c4.438-19.471,15.486-37.146,31.109-49.771
		c1.819-1.47,3.699-2.855,5.621-4.171c2.089,1.307,4.274,2.45,6.548,3.372c2.558,1.049,5.278,1.856,8.096,2.403
		c3.35,0.644,6.7,0.958,10.014,0.958c16.369,0,31.833-7.662,41.793-20.999c14.742,2.654,28.719,8.968,40.438,18.438
		c15.623,12.625,26.671,30.3,31.109,49.771c0.547,2.401,2.624,4.146,5.083,4.271c9.725,0.494,17.343,8.501,17.343,18.228
		c0,10.041-8.136,18.218-18.163,18.282c-0.055-0.002-0.108-0.003-0.156-0.004c-2.45-0.02-4.652,1.608-5.334,3.983
		c-10.96,38.192-46.381,64.866-86.137,64.866s-75.177-26.674-86.137-64.866c-0.677-2.36-2.835-3.983-5.286-3.983
		C147.855,181.451,147.788,181.452,147.715,181.455z M90.638,292.896c-4.301,0-8.145-2.887-9.351-7.026
		c-0.783-2.68-0.408-5.465,1.057-7.842c1.466-2.379,3.786-3.967,6.536-4.472l13.421-2.471c2.567-0.473,4.449-2.686,4.503-5.296
		s-1.735-4.899-4.282-5.477l-17.601-3.995c-5.291-1.201-8.986-5.821-8.986-11.236c0-0.845,0.099-1.718,0.289-2.573
		c0.68-3.003,2.491-5.562,5.099-7.204c2.608-1.643,5.702-2.173,8.706-1.492l9.775,2.22c2.559,0.583,5.167-0.724,6.239-3.117
		c1.071-2.393,0.303-5.209-1.833-6.729l-7.273-5.172c-5.362-3.809-6.933-11.238-3.591-16.891l0.299-0.507
		c1.821-3.087,4.875-5.288,8.381-6.038c3.48-0.745,6.982-0.032,9.859,2.007c21.804,15.446,47.462,24.635,50.324,25.634
		c1.281,1.534,2.615,3.025,3.986,4.483l-60.231,60.232l-13.366,2.763C91.972,292.829,91.313,292.896,90.638,292.896z
		 M139.079,341.785c-9.568,9.568-25.138,9.568-34.703,0.002c-9.564-9.575-9.565-25.144-0.002-34.708l55.73-55.731
		c-7.64,21.152-12.109,42.557-12.109,59.427c0,6.835,0.758,13.495,2.188,19.904L139.079,341.785z M233.838,442.883
		c0,13.532-11.009,24.541-24.542,24.541s-24.542-11.009-24.542-24.541v-58.909c13.862,10.363,30.754,16.881,49.083,17.975V442.883z
		 M293.921,442.883c0,13.532-11.009,24.541-24.541,24.541c-13.532,0-24.542-11.009-24.542-24.541v-40.934
		c18.329-1.094,35.221-7.612,49.083-17.975V442.883z M239.338,391.119c-44.301,0-80.343-36.042-80.343-80.343
		c0-19.507,6.878-46.847,17.758-71.344c0.51,0.406,1.013,0.822,1.531,1.219c17.657,13.509,38.771,20.65,61.058,20.65
		s43.401-7.141,61.058-20.65c0.517-0.396,1.019-0.81,1.528-1.216c10.877,24.504,17.753,51.842,17.753,71.342
		C319.682,355.078,283.64,391.119,239.338,391.119z M373.55,341.785c-9.568,9.568-25.137,9.568-34.705,0l-10.491-10.492
		c1.521-6.597,2.328-13.465,2.328-20.517c0-16.554-4.308-37.482-11.69-58.255l54.559,54.559
		C383.114,316.643,383.113,332.213,373.55,341.785z M376.124,271.085l13.422,2.471c2.748,0.505,5.068,2.093,6.534,4.472
		c1.465,2.377,1.84,5.162,1.055,7.848c-1.204,4.133-5.048,7.02-9.349,7.02c-0.676,0-1.335-0.067-1.978-0.202l-13.977-2.889
		l-59.707-59.707c1.542-1.622,3.035-3.29,4.465-5.009c4.238-1.504,28.891-10.584,49.951-25.503c2.877-2.039,6.38-2.751,9.859-2.006
		c3.505,0.75,6.56,2.951,8.399,6.07l0.267,0.452c3.356,5.676,1.785,13.106-3.579,16.916l-7.271,5.17
		c-2.137,1.519-2.904,4.336-1.833,6.729s3.683,3.697,6.239,3.117l9.772-2.22c3.008-0.681,6.1-0.152,8.708,1.491
		c2.608,1.642,4.419,4.201,5.095,7.183c0.195,0.876,0.293,1.749,0.293,2.594c0,5.415-3.695,10.035-8.986,11.236l-17.601,3.995
		c-2.546,0.578-4.335,2.866-4.282,5.477C371.674,268.399,373.556,270.612,376.124,271.085z"/>
</g>
<g>
</g>
<g>
</g>
<g>
</g>
<g>
</g>
<g>
</g>
<g>
</g>
<g>
</g>
<g>
</g>
<g>
</g>
<g>
</g>
<g>
</g>
<g>
</g>
<g>
</g>
<g>
</g>
<g>
</g>
</svg>
