<svg xmlns="http://www.w3.org/2000/svg" viewBox="0 0 466 466" enable-background="new 0 0 466 466"><path d="M442.595 54.103c0-3.543-2.306-6.543-5.496-7.595l5.045-37.44c.308-2.288-.387-4.596-1.906-6.334-1.519-1.737-3.716-2.734-6.023-2.734-17.377 0-43.03 3.223-66.566 18.58-23.586 15.389-39.598 39.251-47.59 70.925l-41.369 163.95c-3.33-4.933-7.415-9.919-12.165-13.752v-42.337c0-18.485-15.039-33.524-33.524-33.524s-33.524 15.039-33.524 33.524v42.337c-4.75 3.833-8.835 8.819-12.165 13.752l-41.369-163.95c-7.992-31.674-24.004-55.536-47.59-70.925-23.538-15.357-49.191-18.58-66.568-18.58-2.308 0-4.504.997-6.022 2.734-1.52 1.738-2.214 4.046-1.906 6.334l5.045 37.44c-3.191 1.052-5.496 4.052-5.496 7.595 0 4.282 3.366 7.767 7.595 7.98l3.918 29.075c-3.191 1.052-5.496 4.052-5.496 7.595 0 4.282 3.366 7.767 7.595 7.98l3.918 29.075c-3.19 1.052-5.496 4.052-5.496 7.595 0 4.282 3.366 7.767 7.595 7.979l3.918 29.075c-3.191 1.051-5.497 4.052-5.497 7.595 0 4.282 3.367 7.768 7.595 7.98l5.085 37.738c.535 3.969 3.923 6.932 7.929 6.932h25.208c2.174 20.758 12.756 40.678 30.343 56.803 17.022 15.606 38.972 25.984 60.955 28.956 3.722 11.125 13.614 37.393 28.567 53.035-14.582 11.975-42.136 36.462-45.986 53.411-.617 2.719.226 5.563 2.225 7.507 1.072 1.041 26.806 25.586 69.623 25.586s68.551-24.545 69.625-25.59c1.999-1.944 2.842-4.788 2.225-7.507-3.851-16.949-31.404-41.436-45.986-53.411 14.953-15.642 24.846-41.91 28.567-53.035 21.983-2.972 43.933-13.35 60.955-28.956 17.587-16.125 28.169-36.045 30.343-56.803h25.208c4.006 0 7.394-2.962 7.929-6.932l5.085-37.738c4.229-.212 7.595-3.698 7.595-7.98 0-3.543-2.306-6.543-5.497-7.595l3.918-29.075c4.228-.213 7.595-3.698 7.595-7.979 0-3.543-2.306-6.543-5.496-7.595l3.918-29.075c4.229-.212 7.595-3.698 7.595-7.98 0-3.543-2.306-6.543-5.496-7.595l3.917-29.072c4.229-.212 7.595-3.698 7.595-7.979zm-71.448 170.595c-4.418 0-8 3.582-8 8 0 42.349-43.424 75.302-82.396 78.39-3.317.263-6.125 2.551-7.052 5.747-3.479 12.002-15.981 45.515-31.829 56.312-2.118 1.442-3.416 3.812-3.492 6.373-.077 2.561 1.078 5.003 3.106 6.57 16.25 12.55 39.302 33.652 46.041 46.106-7.845 5.912-27.042 17.804-54.525 17.804-27.271 0-46.608-11.924-54.511-17.828 6.756-12.448 29.788-33.534 46.027-46.083 2.027-1.566 3.182-4.009 3.105-6.57-.077-2.561-1.375-4.93-3.492-6.372-15.806-10.769-28.336-44.302-31.829-56.312-.927-3.196-3.734-5.484-7.052-5.747-38.973-3.087-82.396-36.041-82.396-78.39 0-4.418-3.582-8-8-8h-25.794l-3.86-28.649h18.528c4.418 0 8-3.582 8-8s-3.582-8-8-8h-20.685l-3.86-28.649h24.545c4.418 0 8-3.582 8-8s-3.582-8-8-8h-26.701l-3.861-28.649h30.562c4.418 0 8-3.582 8-8s-3.582-8-8-8h-32.718l-3.86-28.649h36.578c4.418 0 8-3.582 8-8s-3.582-8-8-8h-38.734l-4.012-29.774c30.14 2.166 74.102 16.271 89.448 77.091l46.433 184.015c.849 3.365 3.771 5.794 7.234 6.021 3.481.23 6.68-1.807 7.96-5.033 2.291-5.766 10.286-22.005 19.647-27.832 2.347-1.46 3.773-4.028 3.773-6.792v-46.435c0-9.663 7.861-17.524 17.524-17.524s17.524 7.861 17.524 17.524v46.437c0 2.764 1.427 5.332 3.773 6.792 9.361 5.826 17.356 22.065 19.645 27.824 1.276 3.23 4.483 5.268 7.956 5.045 3.466-.224 6.392-2.658 7.241-6.026l46.433-184.015c15.347-60.82 59.309-74.925 89.448-77.091l-4.012 29.774h-38.734c-4.418 0-8 3.582-8 8s3.582 8 8 8h36.578l-3.86 28.649h-32.718c-4.418 0-8 3.582-8 8s3.582 8 8 8h30.562l-3.861 28.649h-26.701c-4.418 0-8 3.582-8 8s3.582 8 8 8h24.545l-3.86 28.649h-20.684c-4.418 0-8 3.582-8 8s3.582 8 8 8h18.528l-3.86 28.649h-25.795zm-138.147-85.709c33.336 0 59.448-16.267 59.448-37.033s-26.112-37.033-59.448-37.033-59.448 16.267-59.448 37.033 26.112 37.033 59.448 37.033zm0-58.066c25.604 0 43.448 11.085 43.448 21.033s-17.844 21.033-43.448 21.033-43.448-11.085-43.448-21.033 17.844-21.033 43.448-21.033zm0 119.216c-4.418 0-8 3.582-8 8v9.224c0 4.418 3.582 8 8 8s8-3.582 8-8v-9.224c0-4.418-3.582-8-8-8z"/></svg>