<svg xmlns="http://www.w3.org/2000/svg" viewBox="0 0 407.601 407.601" enable-background="new 0 0 407.601 407.601"><path d="M247.958 239.177c0 13.937 11.337 25.275 25.273 25.275 13.938 0 25.275-11.339 25.275-25.275 0-3.314-2.686-6-6-6h-38.549c-3.314 0-5.999 2.686-5.999 6zm37.114 6c-2.194 4.313-6.679 7.275-11.841 7.275-5.162 0-9.645-2.963-11.84-7.275h23.681zm-13.618-17.681h3.553c3.313 0 6-2.688 6-6v-23.332c0-3.314-2.688-6-6-6-3.314 0-6 2.686-6 6v17.852c-2.094.936-3.553 3.038-3.553 5.48 0 3.312 2.685 6 6 6zm-139.526 9.925c0-3.314-2.686-6-6-6h-41.213c-3.313 0-6 2.686-6 6 0 14.671 11.936 26.607 26.605 26.607 14.673.001 26.608-11.936 26.608-26.607zm-39.923 6h26.634c-2.293 5.07-7.4 8.607-13.318 8.607-5.916.001-11.023-3.536-13.316-8.607zm11.417-18.902h3.799c3.314 0 6-2.688 6-6v-24.945c0-3.314-2.686-6-6-6-3.313 0-6 2.686-6 6v19.361c-2.225.878-3.799 3.047-3.799 5.584 0 3.313 2.688 6 6 6zm-18.601-36.705c0-3.314-2.686-6-6-6h-11.992c-3.314 0-6 2.686-6 6 0 3.313 2.685 6 6 6h11.992c3.314 0 6-2.688 6-6zm47.002 6h11.992c3.314 0 6-2.688 6-6 0-3.314-2.686-6-6-6h-11.992c-3.313 0-6 2.686-6 6 0 3.312 2.687 6 6 6zm273.086-16.68c5.039-18.848 2.958-38.225-5.859-54.56-14.645-27.132-44.01-39.457-72.254-30.733-11.265-8.274-24.431-14.031-38.709-16.406-3.938-3.931-8.335-7.237-13.073-9.879-10.738-38.694-43.552-65.471-80.694-65.471h-.111c-16.502.024-31.869 5.479-44.441 15.775-11.602 9.5-20.457 23.018-25.938 39.421-37.892-28.464-74.918-18.356-95.96.024-15.023 13.122-24.687 31.744-27.212 52.437-2.703 22.152 2.961 44.772 16.345 65.544v13.649c-2.435 3.822-3.879 8.55-3.879 13.662 0 12.682 8.873 23 19.781 23 1.598 0 3.177-.232 4.707-.667 4.313 32.288 22.547 58.607 46.525 68.54v11.846c-3.972-1.481-8.422-2.449-13.353-2.498-1.989-.174-4.114.481-5.87 1.85-3.132 2.439-5.11 7.034-6.037 14.169-30.96 11.383-50.023 33.02-50.023 57.14v27.539c0 3.313 2.686 6 6 6h335.84c3.314 0 6-2.688 6-6v-27.537c0-2.103-.142-4.184-.397-6.243 13.911-1.328 24.956-6.626 32.879-15.821 17.162-19.916 12.811-50.591 12.616-51.887l-.007.001c-.429-2.893-2.915-5.114-5.928-5.114-3.313 0-6 2.685-6 6 0 6.881-5.598 12.48-12.48 12.48-6.881 0-12.479-5.6-12.479-12.48v-67.852c20.684-16.062 34.507-35.342 40.011-55.929zm-52.01-9.754v72.53c-.934-7.799-7.579-13.868-15.627-13.868l-.381.014c.637-4.621.978-9.37.978-14.221v-51.781c0-3.314-2.685-6-6-6l-.151.008c-51.986-2.99-79.422-17.125-93.281-28.458-10.038-8.208-14.531-16.145-16.378-20.377 13.852-11.86 31.702-19.022 51.17-19.022 43.93 0 79.67 36.416 79.67 81.175zm-11.877 74.411c0 2.067-1.682 3.75-3.75 3.75-2.066 0-3.748-1.683-3.748-3.75 0-.169.028-.331.05-.494l.341-1.139c.609-1.247 1.879-2.115 3.357-2.115 2.068 0 3.75 1.68 3.75 3.748zm-49.302-47.377c.342.135.696.252 1.044.379l-1.797 3.932c-1.377 3.014-.051 6.573 2.964 7.951.808.369 1.655.544 2.489.544 2.277 0 4.453-1.302 5.461-3.508l2.744-6.005c1.488.2 2.997.333 4.514.424v5.311c0 3.313 2.688 6 6 6 3.314 0 6-2.688 6-6v-5.732c1.605-.216 3.179-.514 4.73-.857v14.984c0 38.748-23.613 70.273-52.639 70.273-29.027 0-52.641-31.525-52.641-70.273v-14.965c1.552.34 3.132.622 4.734.837v5.733c0 3.313 2.686 6 6 6 3.313 0 6-2.688 6-6v-5.311c1.517-.091 3.024-.224 4.512-.424l2.746 6.006c1.008 2.205 3.184 3.507 5.461 3.507.834 0 1.682-.175 2.49-.545 3.014-1.378 4.34-4.938 2.962-7.951l-1.797-3.93c.348-.128.703-.245 1.046-.38 3.084-1.211 4.602-4.693 3.391-7.778-1.211-3.084-4.693-4.604-7.778-3.391-5.017 1.971-10.821 3.013-16.784 3.013-4.512 0-8.924-.609-12.982-1.757v-24.718c.023-7.41 2.381-23.057 9.065-25.816 16.29 13.787 45.212 28.006 96.214 31.736v18.814c-4.054 1.143-8.47 1.74-12.98 1.74-5.96 0-11.764-1.042-16.783-3.014-3.086-1.211-6.566.309-7.777 3.393-1.211 3.084.306 6.567 3.391 7.778zm-83.13-34.649v52.07c0 4.854.343 9.604.98 14.229l-.384-.021c-8.039 0-14.678 6.057-15.623 13.843v-72.506c0-20.316 7.38-38.898 19.529-53.151 1.737 3.181 4.207 6.943 7.677 10.973-11.688 8.964-12.169 31.468-12.179 34.563zm4.346 82.026c0 2.067-1.683 3.75-3.75 3.75-2.068 0-3.75-1.683-3.75-3.75s1.682-3.748 3.75-3.748c1.48 0 2.75.868 3.36 2.116l.34 1.137c.022.163.05.325.05.495zm-21.587-116.268c2.049-30.357 19.706-42.559 20.481-43.079l.418-.298c16.668-13.015 37.229-15.451 53.909-7.667-32.733 2.551-60.705 22.656-74.808 51.044zm-174.156 21.744c-12.82-34.407-.95-65.873 18.571-82.924 19.605-17.125 52.836-24.6 87.299 5.783l.054-.004c.701.616 1.554 1.08 2.522 1.318 3.217.785 6.468-1.179 7.258-4.396 8.439-34.37 31.365-54.916 61.328-54.959h.082c23.963 0 53.255 15.043 66.15 47.747-4.051-.994-8.231-1.578-12.498-1.702-15.142-.432-30.375 4.684-42.932 14.428-2.298 1.581-17.632 12.946-23.553 37.988-15.48-23.256-44.155-39.254-76.156-39.254-46.775.001-85.169 33.625-88.125 75.975zm19.44 62.922c-.938.747-2.198 1.408-3.729 1.408-4.219 0-7.781-5.038-7.781-11 0-5.963 3.563-11 7.781-11 1.531 0 2.792.659 3.729 1.405v19.187zm0-57.664v25.491c-1.222-.273-2.47-.419-3.729-.419-1.336 0-2.641.156-3.902.451v-25.523c0-38.176 34.236-69.232 76.316-69.232 41.328 0 76.244 30.242 76.244 66.041v28.693c-1.248-.281-2.527-.43-3.824-.43-1.259 0-2.507.146-3.729.419v-25.181l-.008-.155.008-.155c0-3.314-2.686-6-6-6h-60.96l-16.678-31.787c-1.173-2.236-3.625-3.496-6.126-3.157-2.502.343-4.523 2.216-5.053 4.686l-6.496 30.259h-30.063c-3.314-.001-6 2.684-6 5.999zm83.096 168.876c4.308-3.906 10.721-8.044 18.9-8.536.658 1.611 1.76 5.727 1.76 15.201 0 9.475-1.102 13.588-1.76 15.201-8.178-.493-14.593-4.631-18.9-8.536 1.107-1.975 1.746-4.245 1.746-6.665s-.638-4.691-1.746-6.665zm20.129-20.583c-4.93.049-9.38 1.017-13.352 2.498v-11.847c23.978-9.933 42.212-36.252 46.525-68.539 1.53.434 3.109.667 4.707.667 1.3 0 2.578-.148 3.824-.429v77.745c0 6.881-5.6 12.48-12.48 12.48-6.881 0-12.479-5.6-12.479-12.48 0-3.315-2.686-6-6-6-3.011 0-5.498 2.221-5.928 5.113l-.006-.001c-.024.164-.116.803-.222 1.827-1.461-.792-3.068-1.168-4.589-1.034zm37.881-89.221c-1.53 0-2.791-.661-3.729-1.408v-19.187c.936-.746 2.197-1.405 3.729-1.405 1.581 0 2.868.691 3.824 1.48v19.024c-.934.77-2.228 1.496-3.824 1.496zm-129.106-3.406v-49.666h28.912c2.829 0 5.273-1.976 5.867-4.741l4.034-18.794 10.663 20.322c1.036 1.975 3.082 3.213 5.313 3.213h58.588v49.666c0 41.652-25.43 75.541-56.689 75.541-31.258 0-56.688-33.889-56.688-75.541zm23.381 104.674c8.179.493 14.592 4.63 18.898 8.536-1.107 1.974-1.746 4.245-1.746 6.665s.639 4.691 1.746 6.665c-4.307 3.906-10.721 8.043-18.898 8.536-.658-1.613-1.76-5.728-1.76-15.201 0-9.475 1.102-13.589 1.76-15.201zm27.307 82.65h-50.688v-14.48c0-3.315-2.688-6-6-6-3.314 0-6 2.685-6 6v14.48h-15.779v-21.539c0-17.752 14.132-34.126 37.419-44.001.192 12.621 2.313 20.117 6.642 23.488 1.57 1.224 3.436 1.878 5.232 1.878.213 0 .426-.01.638-.027 12.789-.128 22.408-6.359 28.536-12.02v52.221zm8.482-65.777h-4.965c-.922 0-1.672-.75-1.672-1.672 0-.922.75-1.672 1.672-1.672h4.965c.922 0 1.672.75 1.672 1.672 0 .922-.75 1.672-1.672 1.672zm0-15.344h-4.965c-.6 0-1.186.052-1.766.127-1.406-1.422-3.059-2.926-4.936-4.398v-15.176c3.005.515 6.07.785 9.184.785 3.114 0 6.18-.271 9.186-.785v15.175c-1.877 1.473-3.531 2.977-4.938 4.399-.578-.075-1.165-.127-1.765-.127zm81.961 81.121h-15.754v-14.48c0-3.315-2.686-6-6-6-3.313 0-6 2.685-6 6v14.48h-50.689v-52.221c6.128 5.66 15.748 11.892 28.537 12.02.211.018.424.027.639.027 1.797 0 3.662-.655 5.232-1.878 2.581-2.011 4.377-5.488 5.448-10.641 1.649 3.171 3.65 6.243 6.105 9.091 7.73 8.972 18.434 14.229 31.869 15.715.379 1.979.601 3.974.624 5.971-.001.127-.011 21.916-.011 21.916zm-23.355-51.393c-5.51-6.373-8.179-14.503-9.403-21.931 3.566 2.033 7.686 3.203 12.077 3.203 13.498 0 24.48-10.982 24.48-24.48v-57.218c.945 7.787 7.584 13.845 15.623 13.845 3.314 0 6.381-1.039 8.917-2.797 7.756 16.071 19.729 28.509 33.942 34.804v21.443c-28.757 5.847-50.947 23.228-58.991 44.94-11.567-.77-20.522-4.727-26.645-11.809zm147.224 45.973l-.01 5.42h-80.789l-.01-5.42c0-12.256 6.818-20.158 14.097-22.417 8.088-2.511 15.807 1.134 21.175 9.997l.002-.001c.485.803 1.163 1.506 2.021 2.025 2.836 1.717 6.524.81 8.241-2.024 5.368-8.863 13.085-12.508 21.175-9.997 7.279 2.259 14.098 10.119 14.098 22.417zm31.061 5.42h-19.07v-4.912c.834-15.881-8.411-30.005-22.532-34.387-8.781-2.724-20.518-1.55-29.863 8.417-9.346-9.968-21.08-11.141-29.862-8.416-14.122 4.382-23.367 18.505-22.531 34.386v4.912h-19.046s-.008-21.883-.01-22.055c.328-24.916 24.271-46.536 57.188-51.52 3.133-.475 5.324-3.291 5.077-6.401v-22.275c3.002.546 6.066.845 9.185.845 3.118 0 6.181-.299 9.182-.845v22.571s-.228 5.24 5.5 6.172c32.869 5.346 56.781 26.994 56.781 51.971v21.537zm32.683-70.121c4.402 0 8.534-1.174 12.107-3.217-1.221 7.4-3.887 15.507-9.399 21.904-6.126 7.109-15.098 11.079-26.69 11.85-8.058-21.688-30.256-39.09-58.982-44.935v-21.447c14.212-6.294 26.185-18.729 33.941-34.797 2.535 1.756 5.605 2.789 8.918 2.789 8.048 0 14.693-6.071 15.627-13.87v57.243c0 13.498 10.981 24.48 24.478 24.48zm-39.38-223.865c22.879-3.546 41.425 9.946 50.493 26.746 11.849 21.952 11.913 57.471-23.591 89.205v-50.1c0-25.694-10.296-48.98-26.902-65.851z"/></svg>