<?xml version="1.0" encoding="iso-8859-1"?>
<!-- Generator: Adobe Illustrator 18.0.0, SVG Export Plug-In . SVG Version: 6.00 Build 0)  -->
<!DOCTYPE svg PUBLIC "-//W3C//DTD SVG 1.1//EN" "http://www.w3.org/Graphics/SVG/1.1/DTD/svg11.dtd">
<svg version="1.1" id="Capa_1" xmlns="http://www.w3.org/2000/svg" xmlns:xlink="http://www.w3.org/1999/xlink" x="0px" y="0px"
	 viewBox="0 0 407.601 407.601" style="enable-background:new 0 0 407.601 407.601;" xml:space="preserve">
<g>
	<path d="M247.958,239.177c0,13.937,11.337,25.275,25.273,25.275c13.938,0,25.275-11.339,25.275-25.275c0-3.314-2.686-6-6-6h-38.549
		C250.643,233.177,247.958,235.863,247.958,239.177z M285.072,245.177c-2.194,4.313-6.679,7.275-11.841,7.275
		c-5.162,0-9.645-2.963-11.84-7.275H285.072z"/>
	<path d="M271.454,227.496h3.553c3.313,0,6-2.688,6-6v-23.332c0-3.314-2.688-6-6-6c-3.314,0-6,2.686-6,6v17.852
		c-2.094,0.936-3.553,3.038-3.553,5.48C265.454,224.808,268.139,227.496,271.454,227.496z"/>
	<path d="M131.928,237.421c0-3.314-2.686-6-6-6H84.715c-3.313,0-6,2.686-6,6c0,14.671,11.936,26.607,26.605,26.607
		C119.993,264.029,131.928,252.092,131.928,237.421z M92.005,243.421h26.634c-2.293,5.07-7.4,8.607-13.318,8.607
		C99.405,252.029,94.298,248.492,92.005,243.421z"/>
	<path d="M103.422,224.519h3.799c3.314,0,6-2.688,6-6v-24.945c0-3.314-2.686-6-6-6c-3.313,0-6,2.686-6,6v19.361
		c-2.225,0.878-3.799,3.047-3.799,5.584C97.422,221.832,100.11,224.519,103.422,224.519z"/>
	<path d="M84.821,187.814c0-3.314-2.686-6-6-6H66.829c-3.314,0-6,2.686-6,6c0,3.313,2.685,6,6,6h11.992
		C82.135,193.814,84.821,191.126,84.821,187.814z"/>
	<path d="M131.823,193.814h11.992c3.314,0,6-2.688,6-6c0-3.314-2.686-6-6-6h-11.992c-3.313,0-6,2.686-6,6
		C125.823,191.126,128.51,193.814,131.823,193.814z"/>
	<path d="M404.909,177.134c5.039-18.848,2.958-38.225-5.859-54.56c-14.645-27.132-44.01-39.457-72.254-30.733
		c-11.265-8.274-24.431-14.031-38.709-16.406c-3.938-3.931-8.335-7.237-13.073-9.879c-10.738-38.694-43.552-65.471-80.694-65.471
		h-0.111c-16.502,0.024-31.869,5.479-44.441,15.775c-11.602,9.5-20.457,23.018-25.938,39.421
		C85.938,26.817,48.912,36.925,27.87,55.305C12.847,68.427,3.183,87.049,0.658,107.742c-2.703,22.152,2.961,44.772,16.345,65.544
		v13.649c-2.435,3.822-3.879,8.55-3.879,13.662c0,12.682,8.873,23,19.781,23c1.598,0,3.177-0.232,4.707-0.667
		c4.313,32.288,22.547,58.607,46.525,68.54v11.846c-3.972-1.481-8.422-2.449-13.353-2.498c-1.989-0.174-4.114,0.481-5.87,1.85
		c-3.132,2.439-5.11,7.034-6.037,14.169c-30.96,11.383-50.023,33.02-50.023,57.14v27.539c0,3.313,2.686,6,6,6h335.84
		c3.314,0,6-2.688,6-6v-27.537c0-2.103-0.142-4.184-0.397-6.243c13.911-1.328,24.956-6.626,32.879-15.821
		c17.162-19.916,12.811-50.591,12.616-51.887l-0.007,0.001c-0.429-2.893-2.915-5.114-5.928-5.114c-3.313,0-6,2.685-6,6
		c0,6.881-5.598,12.48-12.48,12.48c-6.881,0-12.479-5.6-12.479-12.48v-67.852C385.582,217.001,399.405,197.721,404.909,177.134z
		 M352.899,167.38v72.53c-0.934-7.799-7.579-13.868-15.627-13.868c-0.128,0-0.253,0.011-0.381,0.014
		c0.637-4.621,0.978-9.37,0.978-14.221v-51.781c0-3.314-2.685-6-6-6c-0.051,0-0.101,0.006-0.151,0.008
		c-51.986-2.99-79.422-17.125-93.281-28.458c-10.038-8.208-14.531-16.145-16.378-20.377c13.852-11.86,31.702-19.022,51.17-19.022
		C317.159,86.205,352.899,122.621,352.899,167.38z M341.022,241.791c0,2.067-1.682,3.75-3.75,3.75c-2.066,0-3.748-1.683-3.748-3.75
		c0-0.169,0.028-0.331,0.05-0.494c0.115-0.379,0.23-0.758,0.341-1.139c0.609-1.247,1.879-2.115,3.357-2.115
		C339.34,238.043,341.022,239.723,341.022,241.791z M291.72,194.414c0.342,0.135,0.696,0.252,1.044,0.379l-1.797,3.932
		c-1.377,3.014-0.051,6.573,2.964,7.951c0.808,0.369,1.655,0.544,2.489,0.544c2.277,0,4.453-1.302,5.461-3.508l2.744-6.005
		c1.488,0.2,2.997,0.333,4.514,0.424v5.311c0,3.313,2.688,6,6,6c3.314,0,6-2.688,6-6v-5.732c1.605-0.216,3.179-0.514,4.73-0.857
		v14.984c0,38.748-23.613,70.273-52.639,70.273c-29.027,0-52.641-31.525-52.641-70.273v-14.965c1.552,0.34,3.132,0.622,4.734,0.837
		v5.733c0,3.313,2.686,6,6,6c3.313,0,6-2.688,6-6v-5.311c1.517-0.091,3.024-0.224,4.512-0.424l2.746,6.006
		c1.008,2.205,3.184,3.507,5.461,3.507c0.834,0,1.682-0.175,2.49-0.545c3.014-1.378,4.34-4.938,2.962-7.951l-1.797-3.93
		c0.348-0.128,0.703-0.245,1.046-0.38c3.084-1.211,4.602-4.693,3.391-7.778c-1.211-3.084-4.693-4.604-7.778-3.391
		c-5.017,1.971-10.821,3.013-16.784,3.013c-4.512,0-8.924-0.609-12.982-1.757v-24.718c0.023-7.41,2.381-23.057,9.065-25.816
		c16.29,13.787,45.212,28.006,96.214,31.736v18.814c-4.054,1.143-8.47,1.74-12.98,1.74c-5.96,0-11.764-1.042-16.783-3.014
		c-3.086-1.211-6.566,0.309-7.777,3.393C287.118,189.72,288.635,193.203,291.72,194.414z M208.59,159.765v52.07
		c0,4.854,0.343,9.604,0.98,14.229c-0.129-0.003-0.254-0.021-0.384-0.021c-8.039,0-14.678,6.057-15.623,13.843V167.38
		c0-20.316,7.38-38.898,19.529-53.151c1.737,3.181,4.207,6.943,7.677,10.973C209.081,134.166,208.6,156.67,208.59,159.765z
		 M212.936,241.791c0,2.067-1.683,3.75-3.75,3.75c-2.068,0-3.75-1.683-3.75-3.75s1.682-3.748,3.75-3.748
		c1.48,0,2.75,0.868,3.36,2.116c0.11,0.381,0.225,0.759,0.34,1.137C212.908,241.459,212.936,241.621,212.936,241.791z
		 M191.349,125.523c2.049-30.357,19.706-42.559,20.481-43.079c0.143-0.094,0.282-0.192,0.418-0.298
		c16.668-13.015,37.229-15.451,53.909-7.667C233.424,77.03,205.452,97.135,191.349,125.523z M17.193,147.267
		c-12.82-34.407-0.95-65.873,18.571-82.924c19.605-17.125,52.836-24.6,87.299,5.783l0.054-0.004c0.701,0.616,1.554,1.08,2.522,1.318
		c3.217,0.785,6.468-1.179,7.258-4.396c8.439-34.37,31.365-54.916,61.328-54.959h0.082c23.963,0,53.255,15.043,66.15,47.747
		c-4.051-0.994-8.231-1.578-12.498-1.702c-15.142-0.432-30.375,4.684-42.932,14.428c-2.298,1.581-17.632,12.946-23.553,37.988
		c-15.48-23.256-44.155-39.254-76.156-39.254C58.543,71.293,20.149,104.917,17.193,147.267z M36.633,210.189
		c-0.938,0.747-2.198,1.408-3.729,1.408c-4.219,0-7.781-5.038-7.781-11c0-5.963,3.563-11,7.781-11c1.531,0,2.792,0.659,3.729,1.405
		V210.189z M36.633,152.525v25.491c-1.222-0.273-2.47-0.419-3.729-0.419c-1.336,0-2.641,0.156-3.902,0.451v-25.523
		c0-38.176,34.236-69.232,76.316-69.232c41.328,0,76.244,30.242,76.244,66.041v28.693c-1.248-0.281-2.527-0.43-3.824-0.43
		c-1.259,0-2.507,0.146-3.729,0.419v-25.181c0-0.053-0.007-0.104-0.008-0.155c0.001-0.052,0.008-0.103,0.008-0.155
		c0-3.314-2.686-6-6-6h-60.96l-16.678-31.787c-1.173-2.236-3.625-3.496-6.126-3.157c-2.502,0.343-4.523,2.216-5.053,4.686
		l-6.496,30.259H42.633C39.319,146.525,36.633,149.21,36.633,152.525z M119.729,321.401c4.308-3.906,10.721-8.044,18.9-8.536
		c0.658,1.611,1.76,5.727,1.76,15.201c0,9.475-1.102,13.588-1.76,15.201c-8.178-0.493-14.593-4.631-18.9-8.536
		c1.107-1.975,1.746-4.245,1.746-6.665C121.475,325.646,120.837,323.375,119.729,321.401z M139.858,300.818
		c-4.93,0.049-9.38,1.017-13.352,2.498v-11.847c23.978-9.933,42.212-36.252,46.525-68.539c1.53,0.434,3.109,0.667,4.707,0.667
		c1.3,0,2.578-0.148,3.824-0.429v77.745c0,6.881-5.6,12.48-12.48,12.48c-6.881,0-12.479-5.6-12.479-12.48c0-3.315-2.686-6-6-6
		c-3.011,0-5.498,2.221-5.928,5.113l-0.006-0.001c-0.024,0.164-0.116,0.803-0.222,1.827
		C142.986,301.06,141.379,300.684,139.858,300.818z M177.739,211.597c-1.53,0-2.791-0.661-3.729-1.408v-19.187
		c0.936-0.746,2.197-1.405,3.729-1.405c1.581,0,2.868,0.691,3.824,1.48v19.024C180.629,210.871,179.335,211.597,177.739,211.597z
		 M48.633,208.191v-49.666h28.912c2.829,0,5.273-1.976,5.867-4.741l4.034-18.794l10.663,20.322c1.036,1.975,3.082,3.213,5.313,3.213
		h58.588v49.666c0,41.652-25.43,75.541-56.689,75.541C74.063,283.732,48.633,249.843,48.633,208.191z M72.014,312.865
		c8.179,0.493,14.592,4.63,18.898,8.536c-1.107,1.974-1.746,4.245-1.746,6.665c0,2.42,0.639,4.691,1.746,6.665
		c-4.307,3.906-10.721,8.043-18.898,8.536c-0.658-1.613-1.76-5.728-1.76-15.201C70.254,318.591,71.356,314.477,72.014,312.865z
		 M99.321,395.515H48.633v-14.48c0-3.315-2.688-6-6-6c-3.314,0-6,2.685-6,6v14.48H20.854v-21.539
		c0-17.752,14.132-34.126,37.419-44.001c0.192,12.621,2.313,20.117,6.642,23.488c1.57,1.224,3.436,1.878,5.232,1.878
		c0.213,0,0.426-0.01,0.638-0.027c12.789-0.128,22.408-6.359,28.536-12.02V395.515z M107.803,329.738h-4.965
		c-0.922,0-1.672-0.75-1.672-1.672c0-0.922,0.75-1.672,1.672-1.672h4.965c0.922,0,1.672,0.75,1.672,1.672
		C109.475,328.988,108.725,329.738,107.803,329.738z M107.803,314.394h-4.965c-0.6,0-1.186,0.052-1.766,0.127
		c-1.406-1.422-3.059-2.926-4.936-4.398v-15.176c3.005,0.515,6.07,0.785,9.184,0.785c3.114,0,6.18-0.271,9.186-0.785v15.175
		c-1.877,1.473-3.531,2.977-4.938,4.399C108.99,314.446,108.403,314.394,107.803,314.394z M189.764,395.515H174.01v-14.48
		c0-3.315-2.686-6-6-6c-3.313,0-6,2.685-6,6v14.48h-50.689v-52.221c6.128,5.66,15.748,11.892,28.537,12.02
		c0.211,0.018,0.424,0.027,0.639,0.027c1.797,0,3.662-0.655,5.232-1.878c2.581-2.011,4.377-5.488,5.448-10.641
		c1.649,3.171,3.65,6.243,6.105,9.091c7.73,8.972,18.434,14.229,31.869,15.715c0.379,1.979,0.601,3.974,0.624,5.971
		C189.774,373.726,189.764,395.515,189.764,395.515z M166.409,344.122c-5.51-6.373-8.179-14.503-9.403-21.931
		c3.566,2.033,7.686,3.203,12.077,3.203c13.498,0,24.48-10.982,24.48-24.48v-57.218c0.945,7.787,7.584,13.845,15.623,13.845
		c3.314,0,6.381-1.039,8.917-2.797c7.756,16.071,19.729,28.509,33.942,34.804v21.443c-28.757,5.847-50.947,23.228-58.991,44.94
		C181.487,355.161,172.532,351.204,166.409,344.122z M313.633,390.095c0,0.115-0.01,5.42-0.01,5.42h-80.789
		c0,0-0.01-5.306-0.01-5.42c0-12.256,6.818-20.158,14.097-22.417c8.088-2.511,15.807,1.134,21.175,9.997l0.002-0.001
		c0.485,0.803,1.163,1.506,2.021,2.025c2.836,1.717,6.524,0.81,8.241-2.024c5.368-8.863,13.085-12.508,21.175-9.997
		C306.814,369.937,313.633,377.797,313.633,390.095z M344.694,395.515h-19.07v-4.912c0.834-15.881-8.411-30.005-22.532-34.387
		c-8.781-2.724-20.518-1.55-29.863,8.417c-9.346-9.968-21.08-11.141-29.862-8.416c-14.122,4.382-23.367,18.505-22.531,34.386v4.912
		H201.79c0,0-0.008-21.883-0.01-22.055c0.328-24.916,24.271-46.536,57.188-51.52c3.133-0.475,5.324-3.291,5.077-6.401v-22.275
		c3.002,0.546,6.066,0.845,9.185,0.845c3.118,0,6.181-0.299,9.182-0.845v22.571c0,0-0.228,5.24,5.5,6.172
		c32.869,5.346,56.781,26.994,56.781,51.971V395.515z M377.377,325.394c4.402,0,8.534-1.174,12.107-3.217
		c-1.221,7.4-3.887,15.507-9.399,21.904c-6.126,7.109-15.098,11.079-26.69,11.85c-8.058-21.688-30.256-39.09-58.982-44.935v-21.447
		c14.212-6.294,26.185-18.729,33.941-34.797c2.535,1.756,5.605,2.789,8.918,2.789c8.048,0,14.693-6.071,15.627-13.87v57.243
		C352.899,314.412,363.88,325.394,377.377,325.394z M337.997,101.529c22.879-3.546,41.425,9.946,50.493,26.746
		c11.849,21.952,11.913,57.471-23.591,89.205v-50.1C364.899,141.686,354.603,118.4,337.997,101.529z"/>
</g>
<g>
</g>
<g>
</g>
<g>
</g>
<g>
</g>
<g>
</g>
<g>
</g>
<g>
</g>
<g>
</g>
<g>
</g>
<g>
</g>
<g>
</g>
<g>
</g>
<g>
</g>
<g>
</g>
<g>
</g>
</svg>
